<?xml version="1.0" encoding="UTF-8"?>
<svg xmlns="http://www.w3.org/2000/svg" viewBox="0 0 400 116.51">
  <g id="logo-text-converter">
    <path d="m112.8,107.12c-.93,1.58-2.11,2.87-3.55,3.88-1.44,1.01-3.06,1.76-4.88,2.24-1.81.49-3.66.73-5.55.73-3,0-5.59-.54-7.78-1.62s-4-2.55-5.44-4.42c-1.44-1.86-2.5-4.06-3.19-6.58-.69-2.52-1.03-5.23-1.03-8.13v-1.79c0-2.87.34-5.57,1.03-8.09.69-2.52,1.75-4.72,3.17-6.6s3.23-3.36,5.42-4.44,4.76-1.62,7.73-1.62c2.01,0,3.93.28,5.78.85s3.48,1.43,4.9,2.58c1.42,1.15,2.58,2.59,3.48,4.31s1.41,3.73,1.53,6.04h2.43c-.04-.78-.19-1.47-.3-2.19-.22-1.39-.56-2.69-1.07-3.88-.13-.29-.19-.63-.33-.91-1.02-2.01-2.35-3.69-4-5.04s-3.54-2.37-5.69-3.05-4.38-1.02-6.72-1.02c-3.15,0-5.94.57-8.38,1.71-1.84.86-3.4,2.05-4.81,3.42-.46.45-.97.84-1.39,1.34-1.69,2.03-2.98,4.46-3.87,7.28-.69,2.21-1.04,4.66-1.18,7.22-.04.7-.14,1.36-.14,2.08v1.79c0,3.39.44,6.49,1.33,9.31s2.17,5.24,3.87,7.28c1.69,2.04,3.78,3.62,6.25,4.76s5.28,1.71,8.43,1.71c2.37,0,4.61-.34,6.74-1s4.01-1.64,5.64-2.9c1.63-1.27,2.95-2.82,3.96-4.65,1-1.84,1.57-3.94,1.69-6.3h-2.43c-.15,2.22-.69,4.12-1.62,5.7Z"/>
    <path d="m160.68,82.12c-1.03-2.82-2.48-5.24-4.34-7.28s-4.1-3.62-6.72-4.76-5.52-1.71-8.7-1.71-6.02.57-8.63,1.71c-1.74.76-3.26,1.8-4.68,2.96-.7.58-1.42,1.13-2.04,1.8-1.87,2.03-3.33,4.46-4.36,7.28-.02.05-.03.11-.05.16-1,2.78-1.5,5.82-1.5,9.15v1.79c0,3.39.52,6.49,1.55,9.31s2.49,5.24,4.36,7.28c1.87,2.04,4.12,3.62,6.74,4.76s5.52,1.71,8.7,1.71,6.02-.57,8.63-1.71,4.85-2.73,6.72-4.76c1.87-2.03,3.32-4.46,4.34-7.28s1.53-5.92,1.53-9.31v-1.79c0-3.39-.52-6.49-1.55-9.31Zm-.88,11.1c0,2.76-.43,5.39-1.28,7.9-.85,2.51-2.08,4.71-3.69,6.62s-3.57,3.42-5.89,4.55c-2.32,1.13-4.97,1.69-7.93,1.69s-5.66-.56-8-1.69c-2.34-1.12-4.31-2.64-5.93-4.55s-2.85-4.11-3.71-6.62c-.85-2.5-1.28-5.14-1.28-7.9v-1.79c0-2.7.43-5.3,1.28-7.79.16-.48.41-.9.6-1.36.81-1.92,1.79-3.71,3.08-5.26.17-.2.38-.35.56-.54,1.5-1.65,3.26-3.04,5.35-4.07,2.34-1.15,4.99-1.73,7.96-1.73s5.62.58,7.96,1.73c2.34,1.15,4.31,2.69,5.93,4.61,1.62,1.92,2.85,4.13,3.71,6.62s1.28,5.09,1.28,7.79v1.79Z"/>
    <path d="m202.3,77.68c-.69-2.16-1.69-3.93-3.01-5.32s-2.94-2.39-4.85-3.03c-1.92-.64-4.1-.96-6.56-.96-.28,0-.55.05-.83.06-1.72.07-3.37.32-4.9.83-1.78.6-3.41,1.42-4.88,2.45-.85.61-1.63,1.3-2.37,2.03-.53.53-1.05,1.07-1.52,1.66-1.12,1.42-2.04,2.95-2.76,4.57v-10.76h-2.43v46.2h2.43v-29.59c.24-1,.58-2.06,1.03-3.2s1.01-2.28,1.69-3.42c.46-.77.99-1.5,1.56-2.22.27-.34.54-.69.84-1.03.93-1.02,1.99-1.94,3.17-2.73s2.51-1.43,3.98-1.9c1.27-.41,2.67-.6,4.16-.66.24,0,.45-.05.69-.05,1.92,0,3.69.23,5.3.68s3.01,1.24,4.18,2.37c1.17,1.13,2.07,2.65,2.72,4.57.64,1.92.97,4.35.97,7.28v29.89h2.43v-29.89c0-3.07-.34-5.69-1.03-7.86Z"/>
    <polygon points="242.59 69.23 240.86 73.43 236.63 83.7 225.1 111.75 208.61 71.63 207.62 69.23 206.91 69.23 205.01 69.23 223.89 115.42 226.27 115.42 239.33 83.53 243.75 72.74 245.19 69.23 242.59 69.23"/>
    <path d="m246.22,90.79h36.45v-2.69c0-2.93-.46-5.61-1.37-8.03s-2.19-4.5-3.82-6.23-3.58-3.08-5.84-4.03-4.74-1.43-7.44-1.43-5.23.54-7.61,1.58c-.11.05-.22.08-.32.13-2.47,1.14-4.63,2.73-6.47,4.76s-3.3,4.47-4.38,7.3c-.03.08-.05.16-.08.23-1.02,2.77-1.54,5.79-1.54,9.06v1.88c0,3.36.55,6.44,1.66,9.24,1.11,2.8,2.63,5.22,4.56,7.26,1.93,2.04,4.19,3.62,6.76,4.76s5.35,1.71,8.31,1.71c1.95,0,3.73-.19,5.35-.55,1.62-.37,3.09-.88,4.43-1.54s2.52-1.44,3.57-2.35,1.98-1.92,2.79-3.03l-1.71-1.15c-1.02,1.25-2.08,2.28-3.19,3.1-1.11.81-2.26,1.46-3.46,1.94s-2.45.83-3.75,1.02-2.64.3-4.02.3c-2.67,0-5.15-.54-7.46-1.62-2.31-1.08-4.31-2.55-6-4.42s-3.02-4.06-3.98-6.58c-.96-2.52-1.44-5.22-1.44-8.09v-2.52Zm5.8-14.97c1.56-1.61,3.36-2.87,5.42-3.78.15-.06.31-.09.46-.15,1.93-.79,4.02-1.22,6.3-1.22,2.43,0,4.63.46,6.61,1.39,1.98.93,3.66,2.18,5.06,3.76,1.39,1.58,2.47,3.42,3.24,5.51.76,2.09,1.15,4.29,1.15,6.6v.55h-33.89c.27-2.5.89-4.84,1.87-7,.01-.03.03-.05.05-.08.97-2.13,2.22-3.99,3.75-5.57Z"/>
    <path d="m309.18,70.89c-.48-.06-.98-.11-1.51-.17-.52-.06-1.07-.08-1.64-.08-2.25,0-4.27.37-6.07,1.11-1.8.74-3.36,1.76-4.67,3.05-1.32,1.3-2.4,2.83-3.26,4.59s-1.48,3.69-1.87,5.76v30.27h-2.43v-46.2h2.43v9.61c1.32-3.22,3.3-5.76,5.93-7.64s5.95-2.82,9.93-2.82c.75,0,1.41.04,1.98.13.57.09,1.05.2,1.44.34l-.27,2.05Z"/>
    <path d="m323.67,56.76v12.47h11.06v2.35h-11.06v32.79c0,2.02.19,3.66.58,4.91s.92,2.23,1.6,2.92c.67.7,1.45,1.17,2.34,1.41s1.82.36,2.81.36c.93,0,1.75-.04,2.47-.11s1.5-.16,2.34-.28l.4,2.18c-.33.11-.72.2-1.17.26s-.91.11-1.39.15c-.48.04-.94.07-1.39.09-.45.01-.82.02-1.12.02-1.56,0-2.95-.19-4.18-.55-1.23-.37-2.27-1.01-3.12-1.92s-1.51-2.13-1.96-3.67-.67-3.46-.67-5.76v-32.79h-8.99v-2.35h8.99v-12.47h2.47Z"/>
    <path d="m355.65,116.28c-2.97,0-5.74-.57-8.31-1.71s-4.83-2.73-6.76-4.76c-1.93-2.03-3.45-4.45-4.56-7.26-1.11-2.8-1.66-5.88-1.66-9.24v-1.88c0-3.36.54-6.45,1.62-9.29,1.08-2.83,2.54-5.27,4.38-7.3,1.84-2.03,4-3.62,6.47-4.76s5.12-1.71,7.93-1.71,5.18.48,7.44,1.43,4.21,2.3,5.84,4.03c1.63,1.74,2.91,3.81,3.82,6.23s1.37,5.1,1.37,8.03v2.69h-36.45v2.52c0,2.87.48,5.57,1.44,8.09.96,2.52,2.28,4.71,3.98,6.58s3.69,3.34,6,4.42c2.31,1.08,4.79,1.62,7.46,1.62,1.38,0,2.72-.1,4.02-.3s2.55-.54,3.75-1.02,2.35-1.13,3.46-1.94c1.11-.81,2.17-1.84,3.19-3.1l1.71,1.15c-.81,1.11-1.74,2.12-2.79,3.03s-2.24,1.69-3.57,2.35-2.81,1.17-4.43,1.54c-1.62.37-3.4.55-5.35.55Zm-.9-45.6c-2.46,0-4.71.46-6.76,1.37s-3.86,2.17-5.42,3.78c-1.56,1.61-2.82,3.5-3.8,5.66-.97,2.16-1.6,4.5-1.87,7h33.89v-.55c0-2.31-.38-4.5-1.15-6.6-.76-2.09-1.84-3.93-3.24-5.51-1.39-1.58-3.08-2.83-5.06-3.76-1.98-.92-4.18-1.39-6.61-1.39Z"/>
    <path d="m399.73,70.89c-.48-.06-.98-.11-1.51-.17-.52-.06-1.07-.08-1.64-.08-2.25,0-4.27.37-6.07,1.11-1.8.74-3.36,1.76-4.67,3.05-1.32,1.3-2.4,2.83-3.26,4.59s-1.48,3.69-1.87,5.76v30.27h-2.43v-46.2h2.43v9.61c1.32-3.22,3.3-5.76,5.93-7.64s5.95-2.82,9.93-2.82c.75,0,1.41.04,1.98.13.57.09,1.05.2,1.44.34l-.27,2.05Z"/>
  </g>
  <g id="logo-text-lyric">
    <path d="m0,82.28V1.89h12.15v70.08h38.66v10.31H0Z"/>
    <path d="m78.82,81.66c.94-3,2.34-5.62,4.15-7.8,1.11-1.34,2.4-2.48,3.82-3.47l19.34-48.13h-11.54l-11.9,31.3c-.98,2.78-2.01,5.69-3.07,8.71-1.07,3.03-2.09,5.97-3.07,8.84h-.49c-1.23-2.95-2.41-5.93-3.56-8.96-1.15-3.03-2.29-5.89-3.44-8.59l-13.5-31.3h-12.15l27.37,59.64-1.6,4.17c-1.31,3.27-3.21,6.01-5.71,8.22-2.5,2.21-5.75,3.31-9.76,3.31-.9,0-1.8-.08-2.7-.25-.9-.16-1.72-.37-2.45-.61l-2.45,9.45c2.45.82,5.19,1.23,8.22,1.23,7.04,0,12.56-1.96,16.57-5.89,2.5-2.45,4.65-5.44,6.51-8.85v-1.27c0-3.53.47-6.81,1.4-9.77Z"/>
    <path d="m138.73,35.4c4.05-2.46,8.2-3.68,12.46-3.68,2.29,0,4.17.16,5.64.49,1.47.33,3.23.82,5.28,1.47l2.7-10.43c-3.52-1.63-7.45-2.45-11.78-2.45-5.32,0-10.23,1.37-14.73,4.11-4.5,2.74-8.31,6.53-11.41,11.35h-.37l-.98-13.99h-10.06v52.91c.35.54.74,1.03,1.03,1.62.83,1.63,1.39,3.47,1.67,5.48h1.38c.08-.23.13-.46.21-.69,1.1-3,2.67-5.62,4.67-7.79.96-1.04,2.02-1.98,3.17-2.8v-22.84c3.35-6.05,7.06-10.31,11.11-12.76Z"/>
    <path d="m180.97,25.94c2.35,0,4.3-.72,5.84-2.15,1.54-1.43,2.31-3.32,2.31-5.67s-.77-4.24-2.31-5.67c-1.54-1.43-3.49-2.15-5.84-2.15s-4.2.72-5.78,2.15c-1.58,1.43-2.37,3.32-2.37,5.67s.79,4.24,2.37,5.67c1.58,1.43,3.51,2.15,5.78,2.15Z"/>
    <path d="m181.65,67.81c1.68-.56,3.5-.84,5.39-.91V26.57h-.1c-1.71,1.1-3.7,1.67-5.98,1.67s-4.19-.57-5.91-1.67h-.17v45.12c.49-.42.96-.85,1.49-1.22,1.59-1.12,3.36-2.02,5.27-2.66Z"/>
    <path d="m208.65,67.69l.39.95,2.67,6.49c2.07,1.96,4.42,3.62,7.1,4.94,4.81,2.37,10.21,3.57,16.17,3.65l4.12-10.03c-.81.08-1.64.12-2.49.12-6.38,0-11.56-1.96-15.53-5.89-3.97-3.93-5.95-9.12-5.95-15.59s2.02-11.66,6.07-15.59c4.05-3.93,9.31-5.89,15.77-5.89,2.95,0,5.69.55,8.22,1.66,2.53,1.11,4.99,2.64,7.36,4.6l5.89-7.73c-2.46-2.37-5.52-4.4-9.2-6.07-3.68-1.67-7.98-2.52-12.89-2.52-6.06,0-11.64,1.25-16.75,3.74-5.11,2.5-9.23,6.07-12.33,10.74-3.11,4.66-4.66,10.35-4.66,17.06,0,5.89,1.22,10.99,3.51,15.36h2.53Z"/>
  </g>
</svg>
